<?xml version="1.0" standalone="no"?>
<!DOCTYPE svg PUBLIC "-//W3C//DTD SVG 20010904//EN"
 "http://www.w3.org/TR/2001/REC-SVG-20010904/DTD/svg10.dtd">
<svg version="1.0" xmlns="http://www.w3.org/2000/svg"
 width="512.000000pt" height="512.000000pt" viewBox="0 0 512.000000 512.000000"
 preserveAspectRatio="xMidYMid meet">
<g transform="translate(0.000000,512.000000) scale(0.100000,-0.100000)"
fill="#6c5ce7" stroke="none">
<path d="M1230 4610 c-246 -45 -464 -206 -583 -430 -61 -114 -86 -200 -92
-318 l-5 -102 1010 0 1010 0 -5 102 c-6 118 -31 204 -92 318 -119 224 -337
385 -583 430 -83 15 -577 15 -660 0z"/>
<path d="M1310 3460 c-19 -19 -20 -33 -20 -280 0 -247 1 -261 20 -280 19 -19
33 -20 280 -20 247 0 261 1 280 20 19 19 20 33 20 280 0 247 -1 261 -20 280
-19 19 -33 20 -280 20 -247 0 -261 -1 -280 -20z"/>
<path d="M2710 3460 c-19 -19 -20 -33 -20 -280 0 -247 1 -261 20 -280 19 -19
33 -20 280 -20 247 0 261 1 280 20 19 19 20 33 20 280 0 247 -1 261 -20 280
-19 19 -33 20 -280 20 -247 0 -261 -1 -280 -20z"/>
<path d="M1310 2060 c-19 -19 -20 -33 -20 -280 0 -247 1 -261 20 -280 19 -19
33 -20 280 -20 247 0 261 1 280 20 19 19 20 33 20 280 0 247 -1 261 -20 280
-19 19 -33 20 -280 20 -247 0 -261 -1 -280 -20z"/>
<path d="M2710 2060 c-19 -19 -20 -33 -20 -280 0 -247 1 -261 20 -280 19 -19
33 -20 280 -20 247 0 261 1 280 20 19 19 20 33 20 280 0 247 -1 261 -20 280
-19 19 -33 20 -280 20 -247 0 -261 -1 -280 -20z"/>
<path d="M1308 1092 c-115 -38 -206 -127 -244 -238 -17 -51 -19 -84 -19 -354
0 -270 2 -303 19 -354 25 -75 58 -131 109 -182 51 -51 107 -84 182 -109 51
-17 84 -19 354 -19 270 0 303 2 354 19 75 25 131 58 182 109 51 51 84 107
109 182 17 51 19 84 19 354 0 270 -2 303 -19 354 -38 111 -129 200 -244 238
-51 17 -84 19 -351 18 -267 0 -300 -2 -351 -18z"/>
</g>
</svg>